<svg xmlns="http://www.w3.org/2000/svg" width="14" height="13"><g fill="#C2C2C2" fill-rule="nonzero"><path d="M9.32 5.29c0-.224.186-.405.415-.405h.827c.229 0 .414.181.414.404v.807a.409.409 0 0 1-.414.404h-.827a.409.409 0 0 1-.414-.404V5.29Z"/><path d="M3.113.042c.229 0 .414.18.414.403V.85h6.622V.445c0-.223.185-.403.413-.403.229 0 .414.18.414.403V.85h.828c.914 0 1.655.723 1.655 1.615v8.88c0 .891-.74 1.614-1.655 1.614H1.872c-.915 0-1.656-.723-1.656-1.614v-8.88c0-.892.741-1.615 1.656-1.615h.827V.445c0-.223.186-.403.414-.403M1.043 3.27v8.073c0 .446.371.807.829.807h9.932a.818.818 0 0 0 .828-.807V3.27H1.044Z"/></g></svg>