<svg xmlns="http://www.w3.org/2000/svg" width="15" height="17"><g fill="#EE7170" fill-rule="nonzero"><path d="M4.583 6c.322 0 .584.256.584.571v6.858a.577.577 0 0 1-.584.571.577.577 0 0 1-.583-.571V6.57C4 6.256 4.261 6 4.583 6M7.5 6c.322 0 .583.256.583.571v6.858A.577.577 0 0 1 7.5 14a.577.577 0 0 1-.583-.571V6.57c0-.315.26-.571.583-.571m3.5.571A.577.577 0 0 0 10.417 6a.577.577 0 0 0-.584.571v6.858c0 .315.262.571.584.571a.577.577 0 0 0 .583-.571V6.57Z"/><path d="M15 3.4c0 .626-.517 1.133-1.154 1.133h-.577v10.2c0 1.252-1.033 2.267-2.307 2.267H4.038c-1.274 0-2.307-1.015-2.307-2.267v-10.2h-.577A1.144 1.144 0 0 1 0 3.4V2.267c0-.626.517-1.134 1.154-1.134h4.038C5.192.507 5.71 0 6.346 0h2.308c.637 0 1.154.507 1.154 1.133h4.038c.637 0 1.154.508 1.154 1.134V3.4ZM3.02 4.533l-.135.067v10.133c0 .626.516 1.134 1.153 1.134h6.924c.637 0 1.153-.508 1.153-1.134V4.6l-.136-.067H3.021ZM1.155 3.4h12.692V2.267H1.154V3.4Z"/></g></svg>