<svg xmlns="http://www.w3.org/2000/svg" width="16" height="16"><g fill="#3A3A3A" fill-rule="nonzero"><path d="M5.017 10.5a.5.5 0 0 1 .5-.5h2a.5.5 0 1 1 0 1h-2a.5.5 0 0 1-.5-.5m0-2a.5.5 0 0 1 .5-.5h5a.5.5 0 1 1 0 1h-5a.5.5 0 0 1-.5-.5m0-2a.5.5 0 0 1 .5-.5h5a.5.5 0 1 1 0 1h-5a.5.5 0 0 1-.5-.5m0-2a.5.5 0 0 1 .5-.5h5a.5.5 0 1 1 0 1h-5a.5.5 0 0 1-.5-.5"/><path d="M3.017 0h10a2 2 0 0 1 2 2v12a2 2 0 0 1-2 2h-10a2 2 0 0 1-2-2v-1h1v1a1 1 0 0 0 1 1h10a1 1 0 0 0 1-1V2a1 1 0 0 0-1-1h-10a1 1 0 0 0-1 1v1h-1V2a2 2 0 0 1 2-2"/><path d="M1.017 5v-.5a.5.5 0 0 1 1 0V5h.5a.5.5 0 0 1 0 1h-2a.5.5 0 0 1 0-1h.5Zm0 3v-.5a.5.5 0 0 1 1 0V8h.5a.5.5 0 0 1 0 1h-2a.5.5 0 0 1 0-1h.5Zm0 3v-.5a.5.5 0 1 1 1 0v.5h.5a.5.5 0 1 1 0 1h-2a.5.5 0 1 1 0-1h.5Z"/></g></svg>