<svg xmlns="http://www.w3.org/2000/svg" width="16" height="16"><g fill="#C2C2C2" fill-rule="nonzero"><path d="M5.854 3.146a.5.5 0 0 1 0 .708l-2 2a.5.5 0 0 1-.708 0l-1-1a.5.5 0 1 1 .708-.708l.646.647 1.646-1.647a.5.5 0 0 1 .708 0Z"/><path d="M5.854 8.146a.5.5 0 0 1 0 .708l-2 2a.5.5 0 0 1-.708 0l-1-1a.5.5 0 0 1 .708-.708l.646.647 1.646-1.647a.5.5 0 0 1 .708 0Z"/><path d="M7 4.5a.5.5 0 0 1 .5-.5h3a.5.5 0 0 1 0 1h-3a.5.5 0 0 1-.5-.5Z"/><path d="M2.5 0A2.5 2.5 0 0 0 0 2.5v9A2.5 2.5 0 0 0 2.5 14h4.1a5.465 5.465 0 0 1-.393-1H2.5A1.5 1.5 0 0 1 1 11.5v-9A1.5 1.5 0 0 1 2.5 1h9A1.5 1.5 0 0 1 13 2.5v3.707c.349.099.683.23 1 .393V2.5A2.5 2.5 0 0 0 11.5 0h-9Z"/><path d="M11.5 16a4.5 4.5 0 1 0 0-9 4.5 4.5 0 0 0 0 9Zm0-7a.5.5 0 0 1 .5.5V11h1.5a.5.5 0 0 1 0 1H12v1.5a.5.5 0 0 1-1 0V12H9.5a.5.5 0 0 1 0-1H11V9.5a.5.5 0 0 1 .5-.5Z"/></g></svg>