<svg xmlns="http://www.w3.org/2000/svg" width="7" height="13"><path fill="#858585" fill-rule="nonzero" d="M0 2.167C0 .97 1.12 0 2.5 0S5 .97 5 2.167v7.8c0 .718-.672 1.3-1.5 1.3S2 10.685 2 9.967V3.9c0-.24.224-.433.5-.433s.5.194.5.433v6.067c0 .239.224.433.5.433s.5-.194.5-.433v-7.8c0-.465-.286-.894-.75-1.126a1.702 1.702 0 0 0-1.5 0c-.464.232-.75.661-.75 1.126v7.8c0 1.196 1.12 2.166 2.5 2.166S6 11.163 6 9.967V3.9c0-.24.224-.433.5-.433s.5.194.5.433v6.067C7 11.642 5.433 13 3.5 13S0 11.642 0 9.967v-7.8Z"/></svg>