<svg xmlns="http://www.w3.org/2000/svg" width="14" height="11"><path fill="#A53EF4" fill-rule="nonzero" d="M4 9.5a.5.5 0 0 1 .5-.5h9a.5.5 0 1 1 0 1h-9a.5.5 0 0 1-.5-.5m0-4a.5.5 0 0 1 .5-.5h9a.5.5 0 1 1 0 1h-9a.5.5 0 0 1-.5-.5m0-4a.5.5 0 0 1 .5-.5h9a.5.5 0 1 1 0 1h-9a.5.5 0 0 1-.5-.5M2.856.148a.5.5 0 0 1 0 .708l-1.5 1.5a.5.5 0 0 1-.708 0l-.5-.5a.5.5 0 1 1 .708-.708L1 1.294 2.147.147a.5.5 0 0 1 .708 0m0 4a.5.5 0 0 1 0 .708l-1.5 1.5a.5.5 0 0 1-.708 0l-.5-.5a.5.5 0 1 1 .708-.708L1 5.294l1.146-1.147a.5.5 0 0 1 .708 0m0 4a.5.5 0 0 1 0 .708l-1.5 1.5a.5.5 0 0 1-.708 0l-.5-.5a.5.5 0 1 1 .708-.708L1 9.294l1.146-1.147a.5.5 0 0 1 .708 0"/></svg>