<svg xmlns="http://www.w3.org/2000/svg" width="278" height="44"><g fill="none" fill-rule="evenodd"><g fill="#3A3A3A" fill-rule="nonzero"><path d="M67.22 27.738v-7.164c0-1.961-.52-3.07-2.077-3.07-1.211 0-2.51.853-3.115 2.473v7.76H59V15.032h3.028v1.79c.952-1.364 2.423-2.131 3.893-2.131 1.99 0 3.288.852 3.894 2.473 1.038-1.62 2.595-2.473 4.499-2.473 2.595 0 4.153 1.876 4.153 5.116v7.932h-3.028v-7.164c0-1.961-.52-3.07-2.077-3.07-1.211 0-2.509.853-3.115 2.473v7.76H67.22Z"/><path d="M86.426 14.69c4.153 0 6.576 2.729 6.576 6.48 0 .342 0 .683-.087.939H82.88c0 2.047 1.47 3.582 4.153 3.582 1.384 0 2.855-.512 3.893-1.28l1.212 1.877c-1.385 1.194-3.288 1.876-5.451 1.876-3.807 0-6.922-2.814-6.922-6.567 0-3.837 2.942-6.907 6.662-6.907Zm0 2.558c-1.73 0-3.2 1.109-3.633 2.9h7.267c-.26-1.62-1.557-2.9-3.634-2.9Z"/><path d="M101.567 17.846c-1.903 0-3.634 1.023-4.24 2.985v7.078H94.3V15.287h3.028v2.388c1.038-1.705 2.509-2.729 4.24-2.729v2.9Z"/><path d="M105.893 10v11.2l5.056-5.913h3.461l-5.277 5.97 5.537 6.652h-3.375l-5.402-6.592v6.677h-3.028V10h3.028Z"/><path d="M121.524 14.861c4.153 0 6.575 2.729 6.575 6.481 0 .341 0 .683-.086.938h-10.036c0 2.047 1.47 3.582 4.152 3.582 1.385 0 2.856-.511 3.894-1.279l1.211 1.876c-1.384 1.194-3.288 1.876-5.45 1.876-3.807 0-6.922-2.814-6.922-6.566 0-3.838 2.941-6.908 6.662-6.908Zm0 2.558c-1.817 0-3.201 1.11-3.634 2.9h7.268c-.26-1.62-1.558-2.9-3.634-2.9Z"/><path d="M129.397 10h3.028v17.994h-3.028z"/><path d="M134.655 15.287h3.029V27.91h-3.029V15.287Zm1.471-4.946c.952 0 1.73.768 1.73 1.706s-.778 1.705-1.73 1.705c-.951 0-1.73-.767-1.73-1.705 0-.938.779-1.706 1.73-1.706"/><path d="M139.414 15.287h3.028v17.824h-3.028V15.287Zm1.47-4.946c.953 0 1.731.768 1.731 1.706s-.778 1.705-1.73 1.705-1.73-.767-1.73-1.705c0-.938.778-1.706 1.73-1.706"/><path d="M147.614 10v11.2l5.056-5.913h3.375l-5.278 5.97 5.537 6.652h-3.374l-5.316-6.591v6.676h-3.028V10h3.028Z"/><path d="M166.946 20.83c0-1.79-.865-2.984-2.422-2.984-1.125 0-3.029.767-3.894 2.473v7.59h-3.028V10h3.028v7.249c1.125-1.45 2.942-2.217 4.845-2.217 2.682 0 4.586 1.79 4.586 5.116v7.932h-3.028l-.087-7.25Z"/><path d="M178.02 14.861c4.153 0 6.576 2.729 6.576 6.481 0 .341 0 .683-.087.938h-10.036c0 2.047 1.471 3.582 4.153 3.582 1.384 0 2.855-.511 3.893-1.279l1.212 1.876c-1.385 1.194-3.288 1.876-5.451 1.876-3.807 0-6.922-2.814-6.922-6.566 0-3.838 2.942-6.908 6.662-6.908Zm0 2.558c-1.816 0-3.2 1.11-3.633 2.9h7.267c-.26-1.62-1.557-2.9-3.634-2.9Z"/><path d="M186.067 15.287h3.028V27.91h-3.028V15.287Zm1.557-4.946c.952 0 1.73.768 1.73 1.706s-.778 1.705-1.73 1.705-1.73-.767-1.73-1.705c0-.938.778-1.706 1.73-1.706"/><path d="M203.976 10v17.994h-3.028v-1.62a5.148 5.148 0 0 1-4.067 2.047c-3.72 0-6.229-2.985-6.229-6.738 0-3.667 2.51-6.737 6.23-6.737 1.557 0 3.2.853 4.066 2.047V10h3.028Zm-6.23 7.76c-2.162 0-3.893 1.791-3.893 3.923 0 2.218 1.73 3.923 3.894 3.923 1.297 0 2.422-.597 3.2-1.62v-4.69c-.778-.938-1.903-1.535-3.2-1.535Z"/></g><circle cx="22" cy="22" r="22" fill="#3A3A3A"/><g fill-rule="nonzero"><path fill="#FFF" d="M26.123 13.775h.247c.94 0 1.365 1.034 1 1.683-.183.331-2.11 3.789-3.628 6.474L25.8 25.69l.268.488c.444.81.875 1.591 1.239 2.248.516.943-.062 1.8-1.03 1.8-.786.016-1.727.023-2.698.025h-1.302c-1.84-.005-3.588-.022-4.4-.025h-.247c-.895 0-1.323-.938-1.047-1.588l.047-.094c.183-.332 2.11-3.79 3.628-6.475L18.2 18.31l-.268-.488c-.444-.81-.875-1.591-1.239-2.248-.516-.943.062-1.8 1.03-1.8.786-.016 1.727-.023 2.698-.025h1.302c1.84.005 3.588.022 4.4.025Z"/><path fill="#3A3A3A" d="M19.055 27.891c.116-.215 1.514-2.771 2.362-4.29.4-.66 1.048-.295 1.198-.032.116.198 1.496 2.788 2.295 4.256.283.528-.033 1.006-.565 1.006-1.53.033-4.142 0-4.741 0-.516 0-.749-.577-.549-.94"/></g><g fill="#D0D0D0" fill-rule="nonzero"><path d="M207.595 26.381c0 1.055.809 1.864 1.864 1.864 1.03 0 1.889-.81 1.889-1.864 0-1.03-.859-1.889-1.89-1.889-1.054 0-1.863.859-1.863 1.889Z"/><path d="M218.094 18.163h3.85v-2.428h-3.85v-2.87h-2.92v2.87h-2.428v2.428h2.428v5.863c0 3.09 1.668 4.146 3.852 4.146 1.005 0 2.11-.147 2.943-.515V25.35a5.158 5.158 0 0 1-2.06.417c-.957 0-1.815-.54-1.815-2.085v-5.52Z"/><path d="M229.427 25.694c-2.16 0-3.803-1.692-3.803-3.827 0-2.06 1.644-3.826 3.803-3.826 2.134 0 3.802 1.766 3.802 3.826 0 2.135-1.668 3.827-3.802 3.827Zm0 2.674c3.826 0 6.598-2.92 6.598-6.5 0-3.558-2.772-6.501-6.598-6.501-3.852 0-6.624 2.943-6.624 6.5 0 3.582 2.772 6.5 6.624 6.5Z"/><path d="M249.934 28V10.583h-2.92v6.77c-.882-1.201-2.379-1.986-3.9-1.986-3.58 0-5.985 2.943-5.985 6.5 0 3.582 2.404 6.5 5.985 6.5 1.521 0 3.018-.76 3.9-1.962V28h2.92Zm-5.936-2.33c-2.061 0-3.754-1.693-3.754-3.803 0-2.036 1.693-3.777 3.754-3.777 1.202 0 2.305.588 3.017 1.52v4.539c-.712.932-1.815 1.52-3.017 1.52Z"/><path d="M255.895 28.368c1.324 0 2.993-.613 4.415-2.355V28h2.944v-8.414c0-2.306-1.398-4.22-5.397-4.22-2.134 0-4.12.688-5.593 1.988l1.497 1.717c1.079-.883 2.575-1.423 3.925-1.423 1.349 0 2.624.417 2.624 2.306v.81c-4.44.073-8.61.441-8.61 4.12 0 2.233 1.62 3.484 4.195 3.484Zm.981-2.134c-.981 0-1.987-.442-1.987-1.62 0-1.3 1.374-1.839 2.159-1.986.834-.172 1.913-.221 3.262-.245v1.643c-1.005 1.496-2.183 2.208-3.434 2.208Z"/><path d="M277.899 15.734h-3.214l-3.654 8.611-3.508-8.61h-3.239l5.2 12.24-2.108 5.03h2.992z"/></g></g></svg>