<svg xmlns="http://www.w3.org/2000/svg" width="318" height="46"><g fill="none" fill-rule="evenodd"><g><circle cx="23" cy="23" r="23" fill="#3A3A3A"/><g fill="#FFF" fill-rule="nonzero"><path d="M27.78 16.34c.153.318 1.968 3.67 2.03 3.806.106.212.106.56 0 .743a308.8 308.8 0 0 0-1.923 3.499l-.264.484c-.839 1.537-1.683 3.087-2.054 3.764-.015 0-.015.015-.015.015a.52.52 0 0 1-.217.237c.004.006-.134.097-.378.097h-4.896l-.047-.002-.032-.004a.579.579 0 0 1-.163-.04l-.032-.015c-.208-.1-.29-.288-.29-.288l-1.489-2.86-1.638 2.89a.58.58 0 0 1-.437.327L15.84 29h-4.27c-.473-.015-.687-.53-.504-.88.029-.056 3.722-6.816 4.18-7.656 0 0 1.905-3.502 2.241-4.124.26-.485.93-.41 1.128-.015.085.168 1.523 2.856 3.047 5.703l.405.755.537 1.003.518-.95.325-.594 3.236-5.932c.23-.44.885-.395 1.098.03Zm5.018 7.808c.065.128.718 1.345 1.355 2.525l.2.37c.197.367.387.717.55 1.017.26.485-.031.925-.518.925-.401.009-.883.012-1.38.013h-.499c-.915-.001-1.805-.01-2.264-.012h-.204c-.458 0-.687-.532-.503-.866.073-.136.71-1.304 1.353-2.473l.214-.388c.213-.386.419-.759.598-1.08.366-.607.96-.273 1.098-.031Z"/><path d="M29.535 28.12c.106-.197 1.387-2.546 2.165-3.942.366-.606.96-.272 1.098-.03.107.182 1.372 2.563 2.105 3.912.26.485-.031.925-.518.925-1.403.03-3.798 0-4.347 0-.473 0-.687-.531-.503-.865"/><path d="m19.789 28.924 2.821-5.14 2.73 5.11s-.152.091-.35.091h-4.88c-.245 0-.321-.06-.321-.06"/></g></g><g fill="#3A3A3A" fill-rule="nonzero"><path d="M67.22 28.738v-7.164c0-1.961-.52-3.07-2.077-3.07-1.211 0-2.51.853-3.115 2.473v7.76H59V16.032h3.028v1.79c.952-1.364 2.423-2.131 3.893-2.131 1.99 0 3.288.852 3.894 2.473 1.038-1.62 2.595-2.473 4.499-2.473 2.595 0 4.153 1.876 4.153 5.116v7.932h-3.028v-7.164c0-1.961-.52-3.07-2.077-3.07-1.211 0-2.509.853-3.115 2.473v7.76H67.22Z"/><path d="M86.426 15.69c4.153 0 6.576 2.729 6.576 6.48 0 .342 0 .683-.087.939H82.88c0 2.047 1.47 3.582 4.153 3.582 1.384 0 2.855-.512 3.893-1.28l1.212 1.877c-1.385 1.194-3.288 1.876-5.451 1.876-3.807 0-6.922-2.814-6.922-6.567 0-3.837 2.942-6.907 6.662-6.907Zm0 2.558c-1.73 0-3.2 1.109-3.633 2.9h7.267c-.26-1.62-1.557-2.9-3.634-2.9Z"/><path d="M101.567 18.846c-1.903 0-3.634 1.023-4.24 2.985v7.078H94.3V16.287h3.028v2.388c1.038-1.705 2.509-2.729 4.24-2.729v2.9Z"/><path d="M105.893 11v11.2l5.056-5.913h3.461l-5.277 5.97 5.537 6.652h-3.375l-5.402-6.592v6.677h-3.028V11h3.028Z"/><path d="M121.524 15.861c4.153 0 6.575 2.729 6.575 6.481 0 .341 0 .683-.086.938h-10.036c0 2.047 1.47 3.582 4.152 3.582 1.385 0 2.856-.511 3.894-1.279l1.211 1.876c-1.384 1.194-3.288 1.876-5.45 1.876-3.807 0-6.922-2.814-6.922-6.566 0-3.838 2.941-6.908 6.662-6.908Zm0 2.558c-1.817 0-3.201 1.11-3.634 2.9h7.268c-.26-1.62-1.558-2.9-3.634-2.9Z"/><path d="M129.397 11h3.028v17.994h-3.028z"/><path d="M134.655 16.287h3.029V28.91h-3.029V16.287Zm1.471-4.946c.952 0 1.73.768 1.73 1.706s-.778 1.705-1.73 1.705c-.951 0-1.73-.767-1.73-1.705 0-.938.779-1.706 1.73-1.706"/><path d="M139.414 16.287h3.028v17.824h-3.028V16.287Zm1.47-4.946c.953 0 1.731.768 1.731 1.706s-.778 1.705-1.73 1.705-1.73-.767-1.73-1.705c0-.938.778-1.706 1.73-1.706"/><path d="M147.614 11v11.2l5.056-5.913h3.375l-5.278 5.97 5.537 6.652h-3.374l-5.316-6.591v6.676h-3.028V11h3.028Z"/><path d="M166.946 21.83c0-1.79-.865-2.984-2.422-2.984-1.125 0-3.029.767-3.894 2.473v7.59h-3.028V11h3.028v7.249c1.125-1.45 2.942-2.217 4.845-2.217 2.682 0 4.586 1.79 4.586 5.116v7.932h-3.028l-.087-7.25Z"/><path d="M178.02 15.861c4.153 0 6.576 2.729 6.576 6.481 0 .341 0 .683-.087.938h-10.036c0 2.047 1.471 3.582 4.153 3.582 1.384 0 2.855-.511 3.893-1.279l1.212 1.876c-1.385 1.194-3.288 1.876-5.451 1.876-3.807 0-6.922-2.814-6.922-6.566 0-3.838 2.942-6.908 6.662-6.908Zm0 2.558c-1.816 0-3.2 1.11-3.633 2.9h7.267c-.26-1.62-1.557-2.9-3.634-2.9Z"/><path d="M186.067 16.287h3.028V28.91h-3.028V16.287Zm1.557-4.946c.952 0 1.73.768 1.73 1.706s-.778 1.705-1.73 1.705-1.73-.767-1.73-1.705c0-.938.778-1.706 1.73-1.706"/><path d="M203.976 11v17.994h-3.028v-1.62a5.148 5.148 0 0 1-4.067 2.047c-3.72 0-6.229-2.985-6.229-6.738 0-3.667 2.51-6.737 6.23-6.737 1.557 0 3.2.853 4.066 2.047V11h3.028Zm-6.23 7.76c-2.162 0-3.893 1.791-3.893 3.923 0 2.218 1.73 3.923 3.894 3.923 1.297 0 2.422-.597 3.2-1.62v-4.69c-.778-.938-1.903-1.535-3.2-1.535Z"/></g><g fill="#D0D0D0" fill-rule="nonzero"><path d="M207.595 27.381c0 1.055.809 1.864 1.864 1.864 1.03 0 1.889-.81 1.889-1.864 0-1.03-.859-1.889-1.89-1.889-1.054 0-1.863.859-1.863 1.889Z"/><path d="M216.057 22.867a3.727 3.727 0 0 1 3.73-3.728c1.3 0 2.305.392 3.384 1.202l1.399-2.134c-1.252-1.202-2.846-1.84-4.907-1.84-3.63 0-6.427 3.042-6.427 6.5 0 3.46 2.797 6.5 6.427 6.5 2.061 0 3.655-.637 4.907-1.839l-1.399-2.11c-1.079.81-2.085 1.178-3.385 1.178-2.134 0-3.729-1.57-3.729-3.729Z"/><path d="M226.312 11.583V29h2.918V11.583z"/><path d="M231.929 29h2.919V16.735h-2.92V29Zm-.197-15.454c0 .932.736 1.643 1.644 1.643.908 0 1.668-.711 1.668-1.643 0-.908-.76-1.668-1.668-1.668-.908 0-1.644.76-1.644 1.668Z"/><path d="M239.558 22.867a3.727 3.727 0 0 1 3.728-3.728c1.3 0 2.306.392 3.385 1.202l1.399-2.134c-1.251-1.202-2.846-1.84-4.906-1.84-3.63 0-6.427 3.042-6.427 6.5 0 3.46 2.796 6.5 6.427 6.5 2.06 0 3.655-.637 4.906-1.839l-1.399-2.11c-1.079.81-2.085 1.178-3.385 1.178-2.134 0-3.728-1.57-3.728-3.729Z"/><path d="M249.811 11.583V29h2.92V11.583h-2.92ZM258.323 29h3.214l-5.25-6.476 5.005-5.79h-3.214l-4.906 5.79L258.323 29Z"/><path d="M263.77 22.867a3.727 3.727 0 0 1 3.728-3.728c1.3 0 2.306.392 3.385 1.202l1.398-2.134c-1.25-1.202-2.845-1.84-4.906-1.84-3.63 0-6.427 3.042-6.427 6.5 0 3.46 2.797 6.5 6.427 6.5 2.06 0 3.655-.637 4.906-1.839l-1.398-2.11c-1.08.81-2.085 1.178-3.385 1.178-2.134 0-3.729-1.57-3.729-3.729Z"/><path d="M274.023 11.583V29h2.918V11.583z"/><path d="M285.454 26.694c-2.159 0-3.802-1.692-3.802-3.827 0-2.06 1.643-3.826 3.802-3.826 2.134 0 3.802 1.766 3.802 3.826 0 2.135-1.668 3.827-3.802 3.827Zm0 2.674c3.827 0 6.599-2.92 6.599-6.5 0-3.558-2.772-6.501-6.6-6.501-3.85 0-6.622 2.943-6.622 6.5 0 3.582 2.772 6.5 6.623 6.5Z"/><path d="M295.977 22.867a3.727 3.727 0 0 1 3.73-3.728c1.3 0 2.305.392 3.384 1.202l1.399-2.134c-1.252-1.202-2.846-1.84-4.907-1.84-3.63 0-6.427 3.042-6.427 6.5 0 3.46 2.797 6.5 6.427 6.5 2.061 0 3.655-.637 4.907-1.839l-1.399-2.11c-1.079.81-2.085 1.178-3.385 1.178-2.134 0-3.729-1.57-3.729-3.729Z"/><path d="M306.231 11.583V29h2.92V11.583h-2.92ZM314.743 29h3.214l-5.25-6.476 5.004-5.79h-3.213l-4.906 5.79L314.743 29Z"/></g></g></svg>