<svg xmlns="http://www.w3.org/2000/svg" width="307" height="116"><g fill="none" fill-rule="evenodd"><g fill="#3A3A3A" fill-rule="nonzero"><path d="M12.093 107.994V97.9c0-2.764-.727-4.326-2.907-4.326-1.695 0-3.512 1.201-4.36 3.485v10.935H.588V90.089h4.238v2.523c1.333-1.922 3.391-3.004 5.45-3.004 2.786 0 4.602 1.202 5.45 3.485 1.453-2.283 3.633-3.485 6.298-3.485 3.633 0 5.813 2.644 5.813 7.21v11.176h-4.239V97.9c0-2.764-.726-4.326-2.906-4.326-1.696 0-3.513 1.201-4.36 3.485v10.935h-4.239Z"/><path d="M38.979 89.608c5.813 0 9.204 3.845 9.204 9.133 0 .48 0 .961-.121 1.322H34.013c0 2.884 2.06 5.047 5.814 5.047 1.937 0 3.996-.721 5.45-1.803l1.695 2.644c-1.938 1.682-4.602 2.644-7.63 2.644-5.329 0-9.688-3.966-9.688-9.253 0-5.408 4.117-9.734 9.325-9.734Zm0 3.605c-2.422 0-4.481 1.562-5.087 4.086h10.173c-.363-2.283-2.18-4.086-5.086-4.086Z"/><path d="M60.173 94.055c-2.665 0-5.087 1.443-5.934 4.206v9.974h-4.24V90.45h4.24v3.365c1.453-2.403 3.512-3.845 5.934-3.845v4.085Z"/><path d="M66.228 83v15.783l7.078-8.333h4.844l-7.387 8.412 7.75 9.373H73.79l-7.563-9.291.001 9.412H61.99V83h4.24Z"/><path d="M88.108 89.85c5.813 0 9.204 3.845 9.204 9.132 0 .481 0 .962-.121 1.322H83.143c0 2.884 2.058 5.047 5.813 5.047 1.937 0 3.996-.72 5.45-1.802l1.695 2.644c-1.938 1.682-4.602 2.643-7.63 2.643-5.328 0-9.688-3.965-9.688-9.253 0-5.407 4.117-9.733 9.325-9.733Zm0 3.605c-2.543 0-4.481 1.562-5.087 4.085h10.173c-.363-2.283-2.18-4.085-5.086-4.085Z"/><path d="M99.129 83h4.239v25.356h-4.24z"/><path d="M106.49 90.45h4.238v17.785h-4.238V90.45Zm2.058-6.97c1.333 0 2.423 1.082 2.423 2.404 0 1.322-1.09 2.403-2.423 2.403-1.332 0-2.422-1.081-2.422-2.403s1.09-2.403 2.422-2.403"/><path d="M113.15 90.45h4.24v25.116h-4.24V90.45Zm2.06-6.97c1.332 0 2.422 1.082 2.422 2.404 0 1.322-1.09 2.403-2.423 2.403-1.332 0-2.422-1.081-2.422-2.403s1.09-2.403 2.422-2.403"/><path d="M124.629 83v15.783l7.078-8.333h4.723l-7.388 8.412 7.751 9.373h-4.723l-7.442-9.289.001 9.41h-4.239V83h4.239Z"/><path d="M151.69 98.261c0-2.523-1.211-4.206-3.391-4.206-1.575 0-4.24 1.082-5.45 3.485v10.695h-4.239V83h4.239v10.214c1.574-2.043 4.117-3.124 6.782-3.124 3.754 0 6.418 2.523 6.418 7.21v11.176h-4.238l-.121-10.215Z"/><path d="M167.191 89.85c5.814 0 9.205 3.845 9.205 9.132 0 .481 0 .962-.121 1.322h-14.049c0 2.884 2.059 5.047 5.813 5.047 1.938 0 3.997-.72 5.45-1.802l1.696 2.644c-1.938 1.682-4.603 2.643-7.63 2.643-5.329 0-9.689-3.965-9.689-9.253 0-5.407 4.118-9.733 9.325-9.733Zm0 3.605c-2.543 0-4.48 1.562-5.086 4.085h10.173c-.363-2.283-2.18-4.085-5.087-4.085Z"/><path d="M178.454 90.45h4.24v17.785h-4.24V90.45Zm2.18-6.97c1.333 0 2.423 1.082 2.423 2.404 0 1.322-1.09 2.403-2.423 2.403-1.332 0-2.422-1.081-2.422-2.403s1.09-2.403 2.422-2.403"/><path d="M203.524 83v25.356h-4.239v-2.284c-1.332 1.803-3.512 2.884-5.692 2.884-5.208 0-8.72-4.206-8.72-9.493 0-5.167 3.512-9.493 8.72-9.493 2.18 0 4.48 1.201 5.692 2.884V83h4.239Zm-8.72 10.935c-3.028 0-5.45 2.524-5.45 5.528 0 3.124 2.422 5.528 5.45 5.528 1.817 0 3.391-.841 4.481-2.283v-6.61c-1.09-1.321-2.664-2.163-4.481-2.163Z"/><path d="M208.589 106.082c0 1.487 1.133 2.627 2.61 2.627 1.442 0 2.644-1.14 2.644-2.627 0-1.451-1.202-2.661-2.644-2.661-1.477 0-2.61 1.21-2.61 2.661Z"/><path d="M223.285 94.503h5.391V91.08h-5.39v-4.044h-4.087v4.044h-3.4v3.422h3.4v8.261c0 4.355 2.335 5.842 5.391 5.842 1.408 0 2.953-.208 4.12-.726v-3.25a7.18 7.18 0 0 1-2.884.588c-1.339 0-2.54-.76-2.54-2.938v-7.777Z"/><path d="M239.15 105.114c-3.022 0-5.323-2.385-5.323-5.392 0-2.903 2.3-5.392 5.322-5.392 2.988 0 5.323 2.489 5.323 5.392 0 3.007-2.335 5.392-5.323 5.392Zm0 3.768c5.356 0 9.236-4.113 9.236-9.16 0-5.012-3.88-9.16-9.237-9.16-5.39 0-9.27 4.148-9.27 9.16 0 5.047 3.88 9.16 9.27 9.16Z"/><path d="M267.855 108.364V83.822h-4.086v9.54c-1.236-1.694-3.33-2.8-5.46-2.8-5.013 0-8.378 4.148-8.378 9.16 0 5.047 3.365 9.16 8.379 9.16 2.129 0 4.223-1.071 5.46-2.765v2.247h4.085Zm-8.31-3.284c-2.884 0-5.253-2.385-5.253-5.358 0-2.869 2.37-5.323 5.254-5.323 1.682 0 3.227.83 4.223 2.143v6.395c-.996 1.313-2.54 2.143-4.223 2.143Z"/><path d="M276.2 108.882c1.854 0 4.189-.864 6.18-3.318v2.8h4.12V96.508c0-3.25-1.957-5.946-7.554-5.946-2.987 0-5.768.968-7.829 2.8l2.095 2.42c1.51-1.245 3.605-2.005 5.494-2.005 1.889 0 3.674.588 3.674 3.25v1.14c-6.215.103-12.052.622-12.052 5.807 0 3.145 2.266 4.908 5.871 4.908Zm1.373-3.007c-1.374 0-2.781-.622-2.781-2.281 0-1.832 1.922-2.593 3.021-2.8 1.168-.242 2.679-.311 4.567-.346v2.316c-1.408 2.109-3.056 3.11-4.807 3.11Z"/><path d="M307 91.081h-4.498l-5.116 12.132-4.911-12.132h-4.532l7.279 17.248-2.953 7.086h4.189z"/></g><ellipse cx="30.795" cy="31" fill="#3A3A3A" rx="30.795" ry="31" transform="translate(122.588)"/><g fill-rule="nonzero"><path fill="#FFF" d="M159.5 19.411c1.316 0 1.91 1.456 1.4 2.371-.256.466-2.953 5.338-5.078 9.122l2.132 3.919.298.548.3.552.301.551c.7 1.285 1.387 2.543 1.958 3.58.723 1.328-.085 2.535-1.442 2.535-1.074.022-2.357.032-3.685.035h-1.458c-3.041-.003-6.004-.035-6.96-.035-1.316 0-1.91-1.456-1.4-2.371.202-.367 1.916-3.464 3.673-6.611l.31-.555 1.096-1.957c-.627-1.147-1.515-2.782-2.43-4.466l-.452-.828a953.897 953.897 0 0 0-2.108-3.854c-.723-1.329.086-2.536 1.443-2.536 1.074-.022 2.357-.032 3.684-.035h1.458c3.041.003 6.004.035 6.96.035Z"/><path fill="#3A3A3A" d="M149.261 39.301c.163-.302 2.119-3.905 3.306-6.044.56-.93 1.467-.417 1.676-.046.164.279 2.096 3.928 3.214 5.997.396.743-.047 1.418-.791 1.418-2.143.046-5.798 0-6.637 0-.722 0-1.048-.814-.768-1.326"/></g></g></svg>